<svg id="Layer_3" height="512" viewBox="0 0 64 64" width="512" xmlns="http://www.w3.org/2000/svg" data-name="Layer 3"><path d="m15 57.586 2 2v-52.22l-2 1.2z"/><path d="m19 41h26v2h-26z"/><path d="m26 61h12v-16h-12zm6-13a4 4 0 1 1 -4 4 4 4 0 0 1 4-4z"/><path d="m19 45h5v16h-5z"/><circle cx="32" cy="52" r="2"/><path d="m40 45h5v16h-5z"/><path d="m47 7.366v52.22l2-2v-49.02z"/><path d="m19 39h26v-6h-26zm22-4h2v2h-2zm-4 0h2v2h-2z"/><path d="m24.277 3-5.277 3.166v24.834h26v-24.834l-5.277-3.166zm6.723 7h2v6h-2zm1 14a6 6 0 0 1 -3.6-10.8l1.2 1.6a4 4 0 1 0 4.8 0l1.2-1.6a6 6 0 0 1 -3.6 10.8z"/></svg>