<svg id="Capa_1" enable-background="new 0 0 512 512" height="512" viewBox="0 0 512 512" width="512" xmlns="http://www.w3.org/2000/svg"><g><path d="m512 91c0-8.28-6.72-15-15-15h-16v30h16c8.28 0 15-6.72 15-15z"/><path d="m497 136h-16v30h16c8.28 0 15-6.72 15-15s-6.72-15-15-15z"/><path d="m497 196h-16v30h16c8.28 0 15-6.72 15-15s-6.72-15-15-15z"/><path d="m497 256h-16v30h16c8.28 0 15-6.72 15-15s-6.72-15-15-15z"/><path d="m497 316h-16v30h16c8.28 0 15-6.72 15-15s-6.72-15-15-15z"/><path d="m0 91c0 8.28 6.72 15 15 15h16v-30h-16c-8.28 0-15 6.72-15 15z"/><path d="m0 151c0 8.28 6.72 15 15 15h16v-30h-16c-8.28 0-15 6.72-15 15z"/><path d="m0 211c0 8.28 6.72 15 15 15h16v-30h-16c-8.28 0-15 6.72-15 15z"/><path d="m0 271c0 8.28 6.72 15 15 15h16v-30h-16c-8.28 0-15 6.72-15 15z"/><path d="m0 331c0 8.28 6.72 15 15 15h16v-30h-16c-8.28 0-15 6.72-15 15z"/><path d="m154.835 239.144c8.414-24.944 29.038-43.846 55.477-49.529 2.77-5.895 6.646-11.167 11.362-15.552-29.385-20.504-70.674.212-70.674 36.938-.001 9.745 1.339 19.182 3.835 28.143z"/><path d="m297.329 182.104c3.672 5.237 6.372 11.198 7.845 17.625 31.269-14.663 35.173-58.355 6.059-77.991-8.886-5.519-18.648-9.754-29.031-12.431 17.56 19.941 23.324 47.425 15.127 72.797z"/><path d="m214.643 239.855c-3.663-5.234-6.355-11.19-7.823-17.611-31.823 14.894-34.7 58.716-6.035 78.028 8.881 5.513 18.637 9.744 29.013 12.419-17.054-19.364-23.621-46.609-15.155-72.836z"/><path d="m251.626 160.743c6.81-.588 13.222.183 19.203 2.025 2.977-35.007-33.672-59.602-64.858-44.066-9.195 5.004-17.559 11.347-24.839 18.758 25.828-5.206 52.55 3.434 70.494 23.283z"/><path d="m290.326 247.937c29.385 20.505 70.675-.212 70.675-36.937 0-9.746-1.34-19.183-3.836-28.144-8.488 25.166-29.396 43.885-55.454 49.479-2.772 5.915-6.656 11.204-11.385 15.602z"/><path d="m260.374 261.256c-6.761.583-13.183-.167-19.226-2.032-3.016 35.136 33.798 59.574 64.895 44.067 9.19-5.003 17.55-11.344 24.827-18.751-25.882 5.217-52.586-3.471-70.496-23.284z"/><path d="m436 31h-45.539v-16c0-8.284-6.716-15-15-15s-15 6.716-15 15v16h-208.922v-16c0-8.284-6.716-15-15-15s-15 6.716-15 15v16h-45.539c-8.284 0-15 6.716-15 15v330c0 8.284 6.716 15 15 15h45.539v45c0 24.813 20.187 45 45 45h14.412v16c0 8.284 6.716 15 15 15h120c8.284 0 15-6.716 15-15v-16h14.511c24.813 0 45-20.187 45-45v-45h45.538c8.284 0 15-6.716 15-15v-330c0-8.284-6.716-15-15-15zm-180 44.999c74.864 0 135.043 61.059 135.043 135.001 0 74.403-60.653 135.001-135.043 135.001-74.721 0-135.043-60.924-135.043-135.001 0-72.531 58.776-135.001 135.043-135.001zm-145-10.049c8.284 0 15 6.716 15 15s-6.716 15-15 15-15-6.716-15-15 6.716-15 15-15zm-15 275.1c0-8.284 6.716-15 15-15s15 6.716 15 15-6.716 15-15 15-15-6.716-15-15zm264.461 94.95c0 8.271-6.729 15-15 15h-14.511v-14c0-8.284-6.716-15-15-15h-120c-8.284 0-15 6.716-15 15v14h-14.412c-8.271 0-15-6.729-15-15v-45h208.923zm40.539-79.95c-8.284 0-15-6.716-15-15s6.716-15 15-15 15 6.716 15 15-6.716 15-15 15zm0-260.1c-8.284 0-15-6.716-15-15s6.716-15 15-15 15 6.716 15 15-6.716 15-15 15z"/><path d="m256 190.541c-11.281 0-20.458 9.178-20.458 20.459 0 11.28 9.178 20.458 20.458 20.458s20.458-9.178 20.458-20.458c0-11.281-9.177-20.459-20.458-20.459z"/></g></svg>