<svg id="Layer_5" enable-background="new 0 0 64 64" height="512" viewBox="0 0 64 64" width="512" xmlns="http://www.w3.org/2000/svg"><g><path d="m11 27h14v6h-14z"/><path d="m35 33v6c0 .552.448 1 1 1h1v-8h-1c-.552 0-1 .448-1 1z"/><path d="m25 39h-14v6h14zm-10 4h-2v-2h2zm4 0h-2v-2h2zm4 0h-2v-2h2z"/><circle cx="52" cy="20" r="1"/><circle cx="36" cy="20" r="1"/><circle cx="44" cy="20" r="1"/><path d="m11 19h14v2h-14z"/><path d="m60 15h-56c-.552 0-1 .448-1 1v9h2v8h-2v2h2v8h-2v5c0 .552.448 1 1 1h56c.552 0 1-.448 1-1v-32c0-.552-.448-1-1-1zm-8 2c1.654 0 3 1.346 3 3s-1.346 3-3 3-3-1.346-3-3 1.346-3 3-3zm-8 0c1.654 0 3 1.346 3 3s-1.346 3-3 3-3-1.346-3-3 1.346-3 3-3zm-8 0c1.654 0 3 1.346 3 3s-1.346 3-3 3-3-1.346-3-3 1.346-3 3-3zm-29 30h-2v-2h2zm0-28h-2v-2h2zm20 28h-18v-10h18zm0-12h-18v-10h18zm0-12h-18v-6h18zm32 24h-2v-2h2zm0-8c0 1.654-1.346 3-3 3h-1v1.414l-3.586 3.586h-10.828l-3.586-3.586v-1.414h-1c-1.654 0-3-1.346-3-3v-6c0-1.654 1.346-3 3-3h1v-1.414l3.586-3.586h10.828l3.586 3.586v1.414h1c1.654 0 3 1.346 3 3zm0-20h-2v-2h2z"/><path d="m56 32h-1v8h1c.552 0 1-.448 1-1v-6c0-.552-.448-1-1-1z"/><path d="m41.414 27-2.414 2.414v13.172l2.414 2.414h9.172l2.414-2.414v-13.172l-2.414-2.414zm9.586 16h-10v-14h10z"/><path d="m43 31h6v10h-6z"/></g></svg>