<svg id="Capa_1" enable-background="new 0 0 512 512" height="512" viewBox="0 0 512 512" width="512" xmlns="http://www.w3.org/2000/svg"><g><path d="m331 271h30v30h-30z"/><path d="m366.728 181 7.5-15-7.5-15h-41.456l-7.5 15 7.5 15z"/><path d="m331 331h30v30h-30z"/><path d="m0 451h512v-390h-512zm91-60h-30v-30h30zm65.024-30.483c-31.304-2.988-59.4-19.702-77.051-45.835l24.844-16.787c12.642 18.677 32.695 30.615 55.063 32.754 22.236 2.051 44.209-5.757 60.117-21.65l21.211 21.211c-21.734 21.75-52.219 33.364-84.184 30.307zm-35.024-104.517h30c0 9.258 7.148 12.935 9.331 13.843 2.183.894 9.697 3.311 16.274-3.237l21.211 21.211c-13.134 13.134-31.915 16.802-48.955 9.741-16.933-7.002-27.861-23.321-27.861-41.558zm270 135h-90v-150h90zm30-270h30v30h-30zm0 240h30v30h-30zm-114.272-240h78.545l22.5 45-22.5 45h-78.545l-22.5-45zm-99.888 38.262c25.825 10.942 45.864 31.274 56.426 57.246 10.591 26.016 10.386 54.536-.542 80.347l-27.627-11.719c7.808-18.398 7.939-38.76.381-57.319-7.559-18.574-21.87-33.105-40.327-40.928zm-23.643 55.21c17.154 7.104 27.803 23.012 27.803 41.528h-30c0-9.243-7.104-12.905-9.287-13.813-2.168-.908-9.771-3.369-16.318 3.208l-21.211-21.211c13.081-13.111 31.875-16.788 49.013-9.712zm-122.197-93.472h30v30h-30zm23.643 68.701c20.053-24.595 49.716-38.701 81.357-38.701v30c-22.588 0-43.77 10.078-58.11 27.671-14.312 17.534-19.907 40.298-15.366 62.432l-29.385 6.035c-6.372-31.011 1.465-62.886 21.504-87.437z"/></g></svg>