<svg id="Layer_1" enable-background="new 0 0 512 512" height="512" viewBox="0 0 512 512" width="512" xmlns="http://www.w3.org/2000/svg"><path d="m432 0c-18.062 0-333.823 0-352 0-26.47 0-48 21.53-48 48v416c0 26.47 21.53 48 48 48h96v-32c0-8.84 7.16-16 16-16s16 7.16 16 16v32h32v-32c0-8.84 7.16-16 16-16s16 7.16 16 16v32h32v-32c0-8.84 7.16-16 16-16s16 7.16 16 16v32h96c26.47 0 48-21.53 48-48v-416c0-26.47-21.53-48-48-48zm-336 384c0-8.84 7.16-16 16-16s16 7.16 16 16-7.16 16-16 16-16-7.16-16-16zm32-304c0 8.84-7.16 16-16 16s-16-7.16-16-16 7.16-16 16-16 16 7.16 16 16zm-16 192c0-8.84 7.16-16 16-16h24c4.41 0 8-3.59 8-8s-3.59-8-8-8c-22.06 0-40-17.94-40-40s17.94-40 40-40h24c8.84 0 16 7.16 16 16s-7.16 16-16 16h-24c-4.41 0-8 3.59-8 8s3.59 8 8 8c8.087 0 14.312-.928 19.91 5.32 12 6.91 20.09 19.87 20.09 34.68 0 22.06-17.94 40-40 40h-24c-8.84 0-16-7.16-16-16zm80 64h128c8.84 0 16 7.16 16 16s-7.16 16-16 16h-128c-8.84 0-16-7.16-16-16s7.16-16 16-16zm64-96c-8.654 0-8.575.033-9.72-.09-20.79-1.41-37.28-18.77-37.28-39.91 0-22.06 17.94-40 40-40h31c8.84 0 16 7.16 16 16s-7.16 16-16 16h-31c-4.41 0-8 3.59-8 8s3.59 8 8 8h7c22.06 0 40 17.94 40 40s-17.94 40-40 40h-31c-8.84 0-16-7.16-16-16s7.16-16 16-16h31c4.41 0 8-3.59 8-8s-3.59-8-8-8zm64 32v-96c0-8.84 7.16-16 16-16h16c26.47 0 48 21.53 48 48v32c0 26.47-21.53 48-48 48h-16c-8.84 0-16-7.16-16-16zm80 96c8.84 0 16 7.16 16 16s-7.16 16-16 16-16-7.16-16-16 7.16-16 16-16zm0-272c-8.84 0-16-7.16-16-16s7.16-16 16-16 16 7.16 16 16-7.16 16-16 16zm-208-64v16c0 8.82 7.18 16 16 16h96c8.82 0 16-7.18 16-16v-16h32v16c0 26.47-21.53 48-48 48h-96c-26.47 0-48-21.53-48-48v-16zm171.51 448-8-32h-199.02l-8 32h-32.98l12.97-51.88c1.78-7.12 8.18-12.12 15.52-12.12h224c7.34 0 13.74 5 15.52 12.12l12.97 51.88z"/><path d="m368 240v-32c0-8.82-7.18-16-16-16v64c8.82 0 16-7.18 16-16z"/></svg>