<svg height="448pt" viewBox="0 -40 448 448" width="448pt" xmlns="http://www.w3.org/2000/svg"><path d="m272.695312 171.832031 9.015626 2.304688.058593-.175781-8.90625-8.714844c-5.960937-5.808594-13.140625-10.222656-21.015625-12.925782l-19.046875-6.503906c-4.34375 8.910156-7.136719 18.496094-8.257812 28.34375l16.394531-3.199218c10.519531-2.066407 21.367188-1.769532 31.757812.871093zm0 0"/><path d="m284.039062 153.808594 6.648438 6.496094.152344-.121094-3.359375-12c-2.261719-8.011719-6.269531-15.425782-11.738281-21.703125l-13.246094-15.199219c-8.15625 5.601562-15.316406 12.53125-21.183594 20.496094l15.710938 5.375c10.128906 3.484375 19.355468 9.171875 27.015624 16.65625zm0 0"/><path d="m302.886719 143.871094 2.480469 8.800781.257812-.0625 3.039062-11.921875c2.058594-8.066406 2.292969-16.492188.695313-24.664062l-3.878906-19.734376c-9.882813.710938-19.574219 3.097657-28.65625 7.054688l10.976562 12.65625c7.023438 8.0625 12.175781 17.582031 15.085938 27.871094zm0 0"/><path d="m271.871094 193.113281 8.800781-2.480469-.0625-.257812-11.921875-3.039062c-8.066406-2.0625-16.492188-2.300782-24.664062-.695313l-19.734376 3.878906c.710938 9.882813 3.097657 19.574219 7.054688 28.65625l12.578125-10.976562c8.085937-7.035157 17.632813-12.1875 27.949219-15.085938zm0 0"/><path d="m408 352v-32h-272v32h16v-24h16v24h16v-24h16v24h16c0-13.253906 10.746094-24 24-24s24 10.746094 24 24h16v-24h16v24h16v-24h16v24h16v-24h16v24h16v-24h16v24zm0 0"/><path d="m128 120h32v32h-32zm0 0"/><path d="m299.832031 223.304688 2.304688-9.015626-.175781-.058593-8.714844 8.90625c-5.808594 5.960937-10.222656 13.140625-12.925782 21.015625l-6.503906 19.046875c8.910156 4.34375 18.496094 7.136719 28.34375 8.257812l-3.199218-16.394531c-2.0625-10.519531-1.765626-21.367188.871093-31.757812zm0 0"/><path d="m324.167969 144.695312-2.304688 9.015626.175781.058593 8.714844-8.90625c5.808594-5.960937 10.222656-13.140625 12.925782-21.015625l6.503906-19.007812c-8.910156-4.34375-18.496094-7.136719-28.34375-8.253906l3.199218 16.390624c2.058594 10.507813 1.761719 21.339844-.871093 31.71875zm0 0"/><path d="m335.695312 162.6875.121094.152344 12-3.359375c8.011719-2.261719 15.425782-6.269531 21.703125-11.738281l15.199219-13.246094c-5.601562-8.15625-12.53125-15.316406-20.496094-21.183594l-5.375 15.710938c-3.476562 10.125-9.15625 19.351562-16.632812 27.015624zm0 0"/><path d="m288.304688 205.3125-.121094-.152344-12 3.359375c-8.011719 2.261719-15.425782 6.269531-21.703125 11.738281l-15.199219 13.246094c5.601562 8.15625 12.53125 15.316406 20.496094 21.183594l5.375-15.710938c3.476562-10.125 9.15625-19.351562 16.632812-27.015624zm0 0"/><path d="m380.039062 159.800781c-8.074218 7.027344-17.605468 12.183594-27.910156 15.085938l-8.800781 2.480469.0625.257812 11.921875 3.039062c8.066406 2.054688 16.492188 2.289063 24.664062.695313l19.734376-3.878906c-.710938-9.882813-3.097657-19.574219-7.054688-28.65625zm0 0"/><path d="m448 64h-368v240h368zm-320 200h-16v-16h16zm24 0h-16v-16h16zm24 0h-16v-16h16zm0-32h-64v-16h64zm0-32h-64v-16h64zm0-32h-64v-64h64zm226.152344 67.632812c-.234375.5-.523438.976563-.863282 1.414063-8.835937 14.824219-21.203124 27.230469-36 36.113281l-.152343.078125c-16.046875 9.652344-34.414063 14.753907-53.136719 14.761719-36.574219-.050781-70.429688-19.316406-89.152344-50.734375v-.058594c-14.21875-23.621093-18.425781-51.941406-11.679687-78.679687 6.746093-26.734375 23.882812-49.671875 47.609375-63.71875h.054687c23.621094-14.222656 51.945313-18.425782 78.679688-11.679688s49.671875 23.882813 63.71875 47.605469v.058594c19.386719 32.164062 19.753906 72.328125.953125 104.839843zm0 0"/><path d="m328 184c0 8.835938-7.164062 16-16 16s-16-7.164062-16-16 7.164062-16 16-16 16 7.164062 16 16zm0 0"/><path d="m16 120h16v96h-16zm0 0"/><path d="m64 368v-360c0-4.417969-3.582031-8-8-8h-56v16h40c4.417969 0 8 3.582031 8 8v344zm0 0"/><path d="m321.113281 224.128906-2.480469-8.800781-.257812.0625-3.039062 11.921875c-2.058594 8.066406-2.292969 16.492188-.695313 24.664062l3.878906 19.734376c9.882813-.710938 19.574219-3.097657 28.65625-7.054688l-10.976562-12.578125c-7.035157-8.085937-12.1875-17.632813-15.085938-27.949219zm0 0"/><path d="m340 214.191406-6.648438-6.496094-.152343.121094 3.359375 12c2.261718 8.011719 6.269531 15.425782 11.738281 21.703125l13.246094 15.199219c8.15625-5.601562 15.316406-12.53125 21.183593-20.496094l-15.710937-5.375c-10.125-3.484375-19.355469-9.171875-27.015625-16.65625zm0 0"/><path d="m369.160156 198.398438c-6.023437.003906-12.019531-.746094-17.855468-2.230469l-9.015626-2.304688-.058593.175781 8.90625 8.714844c5.960937 5.808594 13.140625 10.222656 21.015625 12.925782l19.007812 6.503906c4.34375-8.910156 7.136719-18.496094 8.253906-28.34375l-16.390624 3.199218c-4.566407.902344-9.207032 1.359376-13.863282 1.359376zm0 0"/></svg>