<?xml version="1.0" encoding="iso-8859-1"?>
<!-- Generator: Adobe Illustrator 19.0.0, SVG Export Plug-In . SVG Version: 6.00 Build 0)  -->
<svg version="1.1" id="Layer_1" xmlns="http://www.w3.org/2000/svg" xmlns:xlink="http://www.w3.org/1999/xlink" x="px" y="px"
	 viewBox="0 0 512 512" style="enable-background:new 0 0 512 512;" xml:space="preserve">
<circle style="fill:#D6E5F6;" cx="193.939" cy="193.94" r="170.667"/>
<path style="fill:#2BCDC5;" d="M279.282,217.22h-0.002c-12.853,0-23.273-10.422-23.271-23.274
	c0.002-16.576-6.454-32.161-18.178-43.885c-11.723-11.723-27.307-18.179-43.885-18.178c-12.853,0.002-23.274-10.418-23.274-23.271
	c0-12.854,10.418-23.273,23.271-23.274c29.012-0.002,56.286,11.295,76.802,31.811c20.514,20.516,31.811,47.79,31.809,76.802
	C302.553,206.802,292.133,217.22,279.282,217.22z"/>
<path style="fill:#F66095;" d="M505.183,472.274L346.497,313.585c25.921-32.976,41.398-74.533,41.398-119.637
	C387.894,87.005,300.89,0,193.946,0h-0.003C142.141,0,93.435,20.176,56.804,56.804C20.174,93.439,0,142.142,0,193.947
	c0,106.944,87.003,193.947,193.946,193.947c45.103,0,86.658-15.476,119.639-41.394L472.27,505.184
	c4.544,4.544,10.501,6.816,16.457,6.816c5.956,0,11.913-2.271,16.455-6.816C514.273,496.097,514.273,481.361,505.183,472.274z
	 M46.545,193.947c0-39.373,15.332-76.389,43.172-104.229s64.855-43.172,104.228-43.172c81.279,0,147.403,66.124,147.403,147.402
	c0,81.279-66.124,147.402-147.403,147.402C112.668,341.349,46.545,275.227,46.545,193.947z"/>
<g>
</g>
<g>
</g>
<g>
</g>
<g>
</g>
<g>
</g>
<g>
</g>
<g>
</g>
<g>
</g>
<g>
</g>
<g>
</g>
<g>
</g>
<g>
</g>
<g>
</g>
<g>
</g>
<g>
</g>
</svg>
